<svg version="1.1" id="Layer_1" xmlns="http://www.w3.org/2000/svg" xmlnsXlink="http://www.w3.org/1999/xlink" x="0px" y="0px"
	 width="100%" viewBox="0 0 780 171" enableBackground="new 0 0 780 171" xmlSpace="preserve">
<path fill="#000000" opacity="0" stroke="none" 
	d="
M570.000000,172.000000 
	C380.049805,172.000000 190.599594,172.000000 1.074700,172.000000 
	C1.074700,115.064865 1.074700,58.129601 1.074700,1.097169 
	C260.999969,1.097169 521.000000,1.097169 780.972168,1.097169 
	C780.972168,58.067039 780.972168,115.033531 780.972168,172.000000 
	C710.796265,172.000000 640.648132,172.000000 570.000000,172.000000 
M336.004089,81.868195 
	C335.839386,85.309410 335.090851,88.841125 335.607971,92.176636 
	C338.272095,109.360458 353.119507,112.119591 365.278931,109.574722 
	C370.774292,108.424591 375.357361,105.173874 376.959839,99.202919 
	C377.202026,98.300507 376.672333,97.190918 376.499695,96.177162 
	C375.652405,96.684494 374.631409,97.032753 373.992340,97.730721 
	C372.440460,99.425667 371.303802,101.564865 369.576019,103.022766 
	C364.248474,107.518097 357.049896,105.401520 355.138855,98.807602 
	C354.457092,96.455101 354.284607,93.934128 354.065887,91.473503 
	C353.783417,88.295761 355.432983,86.977638 358.551849,87.015297 
	C363.542053,87.075554 368.551758,87.212997 373.514618,86.824638 
	C375.016571,86.707115 377.385315,85.173096 377.653992,83.922104 
	C378.906860,78.088913 374.063507,70.093964 368.437866,67.844475 
	C355.120514,62.519363 343.162598,67.407806 335.972321,80.212471 
	C335.949066,78.213928 336.518341,75.947716 335.764618,74.279190 
	C334.615570,71.735611 332.851562,68.011490 330.813751,67.627502 
	C326.397919,66.795425 321.643127,67.762184 315.497437,68.069908 
	C313.405396,66.220779 297.599243,65.845100 295.218414,67.954880 
	C296.288727,71.041985 297.787933,73.477776 297.876007,75.963547 
	C298.176666,84.449310 297.906616,92.953590 298.013397,101.448814 
	C298.052460,104.556778 296.807800,106.187317 293.721771,106.254196 
	C290.468750,106.324699 288.924591,104.838783 288.990417,101.396988 
	C289.127380,94.235992 289.090332,87.069267 288.992554,79.906708 
	C288.791595,65.185936 291.003082,67.176460 275.868317,67.017296 
	C272.921265,66.986290 269.971741,67.185478 267.023376,67.278496 
	C266.640594,67.870773 266.257812,68.463043 265.875061,69.055321 
	C272.007233,70.011673 270.972504,74.054878 270.990204,77.608208 
	C271.022552,84.105537 271.198486,90.611557 270.923096,97.097336 
	C270.768524,100.738312 269.830017,104.346016 269.193756,108.284088 
	C273.383881,109.890289 317.990814,109.429810 321.354584,106.964363 
	C315.014496,106.187531 315.990509,101.656021 316.001221,97.601967 
	C316.013519,92.937195 315.782928,88.254929 316.122009,83.614182 
	C316.326782,80.811363 317.413635,78.072990 318.104187,75.305672 
	C321.337494,83.669464 322.973938,85.551964 328.907410,84.794930 
	C331.401764,84.476685 333.664337,82.341568 336.004089,81.868195 
M84.494781,77.999458 
	C78.393898,77.999458 72.293015,77.999458 65.446098,77.999458 
	C66.179222,74.965218 66.521065,72.879608 67.187645,70.903542 
	C70.745155,60.357304 74.500053,49.875603 77.888542,39.276268 
	C78.506546,37.343113 77.744446,34.968754 77.619423,32.798065 
	C74.791862,33.019474 71.915489,33.005974 69.160866,33.578373 
	C68.065109,33.806065 67.191750,35.288036 66.297058,36.271683 
	C53.227306,50.640896 40.151569,65.004761 27.120968,79.409439 
	C21.668955,85.436363 16.165592,91.430573 11.033829,97.723640 
	C9.779161,99.262238 8.950801,102.329414 9.653205,103.941360 
	C10.317611,105.466118 13.178374,106.599350 15.201542,106.844337 
	C18.977011,107.301521 22.845573,106.994637 26.675404,106.997070 
	C32.944363,107.001068 39.213322,106.998154 46.263474,106.998154 
	C45.480087,109.657150 45.027199,111.365677 44.474842,113.041412 
	C40.936764,123.775055 37.174385,134.441803 33.979111,145.276031 
	C33.260124,147.713882 33.503696,151.854507 35.056244,153.221802 
	C37.594090,155.456848 40.572323,153.180542 42.709549,150.797440 
	C45.923958,147.213242 49.154316,143.642822 52.415749,140.101410 
	C64.450706,127.033272 76.502274,113.980446 88.545296,100.919746 
	C92.598167,96.524384 96.872490,92.303406 100.572861,87.628532 
	C101.917397,85.929909 102.819328,82.821480 102.179977,80.952698 
	C101.683167,79.500572 98.550041,78.421608 96.464958,78.159019 
	C92.857368,77.704697 89.153900,78.011772 84.494781,77.999458 
M647.999756,91.490623 
	C646.960876,96.903130 650.969482,103.546860 643.873230,107.411926 
	C648.227234,109.901550 667.074341,109.626740 670.198303,106.803856 
	C664.520386,106.266525 664.877686,102.312477 664.982727,98.411736 
	C665.076843,94.917168 664.641357,91.368752 665.104675,87.933800 
	C665.675354,83.703102 666.617188,79.452156 668.046021,75.440529 
	C668.656799,73.725540 670.903381,72.593155 672.406677,71.196053 
	C672.868835,71.586098 673.330933,71.976143 673.793030,72.366196 
	C670.381836,75.103615 668.355103,78.218697 671.398499,82.046570 
	C672.366699,83.264366 674.132935,84.713043 675.440613,84.627525 
	C678.875000,84.402916 682.257935,83.392143 685.046875,82.820534 
	C687.505127,86.622063 690.122559,90.669838 692.873230,94.923653 
	C687.216003,99.330719 683.675964,104.802483 689.653503,112.167839 
	C685.767944,114.412567 682.453125,116.627922 683.091797,121.520302 
	C683.703735,126.208084 687.634949,127.272217 691.071167,128.821060 
	C692.265198,129.359222 693.621948,129.829773 694.904907,129.831161 
	C706.381287,129.843658 718.419006,132.374130 726.463928,123.713264 
	C730.687439,126.072914 734.016418,129.253159 737.694458,129.727692 
	C746.886597,130.913605 750.657166,128.515533 754.163452,119.619606 
	C758.536499,108.524307 761.876709,97.021408 766.264709,85.932663 
	C768.661743,79.875153 768.693787,72.493881 776.442139,67.892937 
	C770.953308,66.892113 766.964294,66.260696 763.884644,67.647972 
	C764.797058,70.549263 766.223267,72.607132 765.784363,74.125977 
	C764.065369,80.073936 761.757568,85.851700 759.668579,91.692696 
	C759.222778,91.673294 758.776978,91.653885 758.331177,91.634483 
	C756.576416,86.369423 754.593323,81.164986 753.172058,75.811386 
	C752.547363,73.458221 753.066895,70.801292 753.066895,67.421921 
	C752.384521,67.352859 750.667847,67.056877 748.946655,67.028030 
	C743.952209,66.944298 738.955811,66.979485 733.960388,66.944359 
	C731.332764,66.925880 729.972229,65.990265 730.442322,62.959595 
	C731.050659,59.038494 729.655701,56.065163 725.395081,55.181877 
	C720.157532,54.096046 715.858032,56.215775 714.467285,60.633759 
	C713.935669,62.322643 713.731018,64.114441 713.313477,66.174355 
	C702.938965,65.792953 692.451538,64.728500 686.415405,76.451942 
	C686.095703,66.799797 677.192810,62.363979 665.997375,69.561119 
	C662.772339,66.514351 648.970764,65.789513 643.585632,68.704956 
	C649.049072,70.382423 647.935181,74.685097 647.986572,78.504135 
	C648.040283,82.500023 647.999390,86.497192 647.999756,91.490623 
M429.964752,86.499359 
	C429.944214,73.843315 429.971802,61.186920 429.879974,48.531387 
	C429.842102,43.313374 428.510773,42.422039 423.889130,44.625824 
	C420.799469,46.099075 418.446747,45.882801 415.156311,44.335392 
	C403.878693,39.031841 387.627686,41.554653 384.795807,58.435482 
	C384.182800,62.089485 382.336212,65.536545 380.911316,69.484848 
	C384.870239,69.630165 383.950867,73.465172 383.979034,76.735802 
	C384.036438,83.396767 384.047546,90.059044 383.981659,96.719818 
	C383.941284,100.800797 385.225159,105.404503 380.154999,108.237106 
	C388.408539,108.237106 396.662079,108.237106 404.915619,108.237106 
	C400.728058,105.685806 400.916565,102.075233 400.976471,98.403526 
	C401.074249,92.409828 401.011963,86.413330 400.998199,80.418060 
	C400.986420,75.276924 399.765717,69.439713 407.726624,68.987045 
	C407.773315,68.984390 407.803009,68.682365 408.012115,67.780807 
	C406.717590,67.487450 405.328217,67.385284 404.141693,66.840942 
	C403.062225,66.345703 401.339142,65.316338 401.382782,64.614655 
	C401.750183,58.707668 401.937866,52.700275 403.273865,46.978584 
	C403.994110,43.893967 406.316833,45.011787 407.621857,47.405811 
	C401.852142,52.244884 402.702942,57.225479 409.202148,60.252357 
	C410.596680,60.901817 411.818634,63.491375 411.860626,65.217850 
	C412.111694,75.537102 412.160309,85.869270 411.915771,96.188545 
	C411.821716,100.159332 410.778748,104.107628 410.051605,108.821541 
	C417.126068,108.707535 425.081238,109.886368 432.341248,108.315018 
	C431.409302,104.979782 430.315643,102.517311 430.104614,99.981400 
	C429.760468,95.845718 429.992310,91.662117 429.964752,86.499359 
M498.793274,102.685677 
	C497.413025,104.147919 496.032806,105.610168 493.860352,107.911682 
	C496.455780,108.365707 498.246338,108.937988 500.040955,108.950851 
	C511.701752,109.034477 523.363403,109.008018 535.024780,108.994301 
	C542.971069,108.984955 543.023926,108.967697 542.974915,100.919296 
	C542.951965,97.148193 542.679932,93.378609 542.520752,89.608337 
	C541.910828,89.526169 541.300903,89.444000 540.690979,89.361832 
	C539.797241,91.042046 538.989197,92.774971 537.994202,94.392952 
	C534.448669,100.158752 529.796875,104.387764 522.661011,104.921944 
	C519.981995,105.122482 518.053223,104.292343 518.063354,101.127541 
	C518.081970,95.297646 518.060547,89.467636 518.071777,83.637703 
	C518.078003,80.381050 520.348633,79.646484 522.294800,81.209793 
	C524.866455,83.275505 526.673157,86.288544 528.834290,88.873016 
	C529.582153,89.767357 530.406311,90.597839 531.195618,91.457466 
	C531.784851,90.385841 532.860107,89.324768 532.883728,88.240845 
	C533.024658,81.748199 533.004639,75.248116 532.828735,68.756195 
	C532.797302,67.595543 531.785217,66.461464 531.266235,65.397736 
	C528.277344,68.900414 526.107239,72.233788 523.177734,74.644096 
	C520.494568,76.851723 518.085510,75.954247 518.058105,71.939011 
	C518.019409,66.275581 518.044861,60.611618 518.061096,54.947933 
	C518.071106,51.455212 519.953857,50.849106 523.028748,51.470543 
	C528.829773,52.642921 532.836182,55.929592 535.553528,61.094673 
	C536.446411,62.791813 537.778198,64.258034 538.909302,65.829849 
	C539.454834,65.638298 540.000366,65.446754 540.545898,65.255211 
	C540.545898,61.231213 540.688782,57.200661 540.504395,53.185131 
	C540.330322,49.393017 538.312012,47.855110 534.314697,47.931881 
	C522.657654,48.155773 510.993408,47.987034 499.332245,48.039490 
	C497.822266,48.046276 496.314056,48.448708 494.805023,48.667870 
	C499.953979,51.220741 498.998199,55.520180 498.996826,59.367142 
	C498.991821,73.526596 498.937592,87.686035 498.793274,102.685677 
M575.644653,66.709770 
	C573.928894,67.262451 572.195251,68.333649 570.500549,68.275146 
	C564.246399,68.059280 558.008301,67.411720 551.756287,67.069420 
	C550.498413,67.000557 549.206177,67.557228 547.929810,67.825493 
	C547.561646,68.287819 547.193481,68.750153 546.825317,69.212486 
	C553.010376,69.855927 551.957092,73.808594 551.983398,77.205826 
	C552.033508,83.701897 552.049316,90.199158 551.980896,96.694893 
	C551.937866,100.779373 553.225281,105.384865 548.171387,108.267792 
	C556.138794,108.267792 564.106201,108.267792 571.879272,108.267792 
	C571.132263,105.464195 570.130859,103.328056 570.066528,101.164055 
	C569.863586,94.341034 569.895142,87.504051 570.100342,80.680405 
	C570.157288,78.785873 570.828552,76.739639 571.793762,75.102455 
	C572.436401,74.012405 574.099670,73.524033 575.306091,72.766350 
	C575.883789,73.865768 576.893494,74.936577 576.968506,76.069267 
	C577.429382,83.027512 577.915527,90.000206 577.901917,96.967125 
	C577.894836,100.608315 576.885376,104.247543 576.274719,108.240250 
	C583.050232,108.240250 590.978943,108.240250 598.907593,108.240250 
	C594.735229,105.679321 594.921814,102.073318 594.973755,98.400009 
	C595.065552,91.904999 595.103271,85.404755 594.948303,78.911835 
	C594.743896,70.351242 590.333984,66.077637 581.867188,66.032722 
	C580.045593,66.023056 578.222717,66.264526 575.644653,66.709770 
M253.136322,67.753906 
	C250.995163,71.380562 249.744446,75.615036 244.910553,77.090157 
	C241.610748,78.097145 240.080200,77.468414 240.055328,73.984116 
	C240.016144,68.488960 240.216568,62.984470 239.957535,57.500847 
	C239.740555,52.907211 241.950592,51.463348 246.017242,52.104534 
	C247.774567,52.381603 249.974045,52.684608 251.060867,53.836288 
	C253.948380,56.896057 256.291595,60.463173 258.956238,63.743206 
	C259.818512,64.804619 261.006500,65.601402 262.045502,66.519249 
	C262.683075,65.316673 263.841064,64.120766 263.856598,62.910202 
	C263.896698,59.782207 263.210480,56.646847 263.223145,53.516087 
	C263.240875,49.139664 261.173248,47.868729 257.026215,47.938351 
	C245.372314,48.134007 233.712845,47.977383 222.055969,48.037514 
	C220.350510,48.046310 218.647232,48.479729 216.578796,48.767303 
	C217.116440,50.035400 217.276199,51.070675 217.626602,51.139816 
	C222.816223,52.163834 221.985825,56.180702 221.991302,59.753735 
	C222.009933,71.910507 222.024963,84.067406 221.986221,96.224075 
	C221.972702,100.467445 223.257828,105.192375 217.583237,107.535049 
	C222.973709,109.844650 246.924423,109.481133 250.467361,106.729279 
	C248.493515,106.421463 247.122513,105.926308 245.811981,106.053627 
	C240.994873,106.521652 239.727646,104.067833 239.963379,99.771103 
	C240.181992,95.786316 239.783524,91.761398 240.111023,87.791626 
	C240.266464,85.907318 241.626999,82.501755 242.188522,82.553093 
	C244.577515,82.771538 247.132935,83.651611 249.109467,85.031998 
	C250.441284,85.962135 250.830673,88.179588 251.787262,89.731384 
	C252.403687,90.731354 253.283905,91.568726 254.045898,92.478981 
	C254.683151,91.279709 255.832611,90.096581 255.871002,88.878433 
	C256.059723,82.889664 256.063416,76.887779 255.854889,70.900185 
	C255.815018,69.754868 254.528366,68.652977 253.136322,67.753906 
M469.305206,67.078125 
	C467.269470,67.361710 465.938873,67.847404 468.162292,69.930588 
	C468.966522,70.684135 470.178162,71.990807 469.973602,72.679688 
	C468.015656,79.272675 465.793945,85.787308 463.647858,92.324417 
	C463.206268,92.283348 462.764679,92.242279 462.323120,92.201210 
	C460.600922,87.263756 458.603851,82.399391 457.263824,77.360313 
	C456.508881,74.521416 456.836975,71.394501 456.615204,67.234932 
	C449.945038,66.859634 441.885193,66.742310 433.323975,67.378105 
	C435.409149,70.848419 437.100342,72.937599 438.021027,75.324036 
	C441.535767,84.433998 444.720184,93.671265 448.223663,102.785774 
	C449.023346,104.866188 450.391724,108.102821 451.862305,108.317802 
	C459.076538,109.372391 456.511078,113.111320 454.653625,116.726334 
	C453.374451,119.215881 452.092316,121.784645 450.319916,123.907623 
	C449.363800,125.052879 447.374207,125.335335 446.652069,125.653770 
	C447.001282,122.547272 448.125824,119.718330 447.299011,117.681549 
	C446.608948,115.981712 443.741669,114.527596 441.642365,114.191788 
	C438.701965,113.721428 435.127228,113.127190 433.329926,116.882599 
	C431.081543,121.580399 433.083740,126.941872 437.745178,129.361710 
	C442.348877,131.751541 446.583069,131.180344 450.977570,128.677338 
	C456.084106,125.768768 457.985474,120.734634 459.765076,115.787987 
	C463.914215,104.254692 467.310760,92.438538 471.786041,81.040810 
	C473.503448,76.666794 472.716187,70.418556 479.528473,68.808022 
	C479.345886,68.217232 479.163330,67.626434 478.980743,67.035645 
	C476.021393,67.035645 473.062073,67.035645 469.305206,67.078125 
M622.798767,104.069763 
	C618.808594,100.795128 618.043335,96.328629 618.010315,91.512894 
	C617.988586,88.347725 619.376160,86.977531 622.522339,87.016075 
	C627.515686,87.077263 632.528748,87.215317 637.494629,86.825813 
	C639.010254,86.706932 641.360535,85.203323 641.681763,83.921219 
	C643.251282,77.657967 638.854431,70.175591 632.722168,67.816620 
	C614.519531,60.814384 599.857178,70.735207 600.004211,89.954147 
	C600.074280,99.112801 604.555115,106.047592 613.438477,108.808174 
	C622.667847,111.676308 632.743469,110.810600 638.343506,103.944847 
	C640.094849,101.797676 640.809082,98.804565 641.998047,96.198685 
	C641.365295,95.841957 640.732483,95.485222 640.099731,95.128494 
	C638.042542,97.694122 636.463562,101.135811 633.799683,102.589912 
	C630.877319,104.185089 626.954590,103.947662 622.798767,104.069763 
M166.002441,24.506729 
	C165.376801,19.546946 167.383102,14.204418 163.596191,9.535626 
	C162.484756,11.790272 162.037277,14.061838 162.035309,16.333792 
	C161.994690,63.135826 161.978897,109.937965 162.086029,156.739792 
	C162.091064,158.938904 163.280090,161.135300 163.917725,163.332947 
	C164.611725,161.194000 165.905502,159.056671 165.911301,156.915863 
	C166.029984,113.112114 166.001541,69.307961 166.002441,24.506729 
M270.314301,55.151638 
	C270.519470,55.784237 270.701233,56.425571 270.933533,57.048050 
	C272.794128,62.033863 278.248962,64.400223 283.614319,62.557533 
	C287.927765,61.076115 290.351776,55.870022 288.942535,51.113922 
	C287.625702,46.669674 285.148346,45.643253 277.490265,46.009159 
	C272.027924,46.270157 270.756744,49.962299 270.314301,55.151638 
z"/>
<path fill="#003049" opacity="1.000000" stroke="none" 
	d="
M84.992714,77.999458 
	C89.153900,78.011772 92.857368,77.704697 96.464958,78.159019 
	C98.550041,78.421608 101.683167,79.500572 102.179977,80.952698 
	C102.819328,82.821480 101.917397,85.929909 100.572861,87.628532 
	C96.872490,92.303406 92.598167,96.524384 88.545296,100.919746 
	C76.502274,113.980446 64.450706,127.033272 52.415749,140.101410 
	C49.154316,143.642822 45.923958,147.213242 42.709549,150.797440 
	C40.572323,153.180542 37.594090,155.456848 35.056244,153.221802 
	C33.503696,151.854507 33.260124,147.713882 33.979111,145.276031 
	C37.174385,134.441803 40.936764,123.775055 44.474842,113.041412 
	C45.027199,111.365677 45.480087,109.657150 46.263474,106.998154 
	C39.213322,106.998154 32.944363,107.001068 26.675404,106.997070 
	C22.845573,106.994637 18.977011,107.301521 15.201542,106.844337 
	C13.178374,106.599350 10.317611,105.466118 9.653205,103.941360 
	C8.950801,102.329414 9.779161,99.262238 11.033829,97.723640 
	C16.165592,91.430573 21.668955,85.436363 27.120968,79.409439 
	C40.151569,65.004761 53.227306,50.640896 66.297058,36.271683 
	C67.191750,35.288036 68.065109,33.806065 69.160866,33.578373 
	C71.915489,33.005974 74.791862,33.019474 77.619423,32.798065 
	C77.744446,34.968754 78.506546,37.343113 77.888542,39.276268 
	C74.500053,49.875603 70.745155,60.357304 67.187645,70.903542 
	C66.521065,72.879608 66.179222,74.965218 65.446098,77.999458 
	C72.293015,77.999458 78.393898,77.999458 84.992714,77.999458 
z"/>
<path fill="#003049" opacity="1.000000" stroke="none" 
	d="
M647.999756,90.992210 
	C647.999390,86.497192 648.040283,82.500023 647.986572,78.504135 
	C647.935181,74.685097 649.049072,70.382423 643.585632,68.704956 
	C648.970764,65.789513 662.772339,66.514351 665.997375,69.561119 
	C677.192810,62.363979 686.095703,66.799797 686.415405,76.451942 
	C692.451538,64.728500 702.938965,65.792953 713.313477,66.174355 
	C713.731018,64.114441 713.935669,62.322643 714.467285,60.633759 
	C715.858032,56.215775 720.157532,54.096046 725.395081,55.181877 
	C729.655701,56.065163 731.050659,59.038494 730.442322,62.959595 
	C729.972229,65.990265 731.332764,66.925880 733.960388,66.944359 
	C738.955811,66.979485 743.952209,66.944298 748.946655,67.028030 
	C750.667847,67.056877 752.384521,67.352859 753.066895,67.421921 
	C753.066895,70.801292 752.547363,73.458221 753.172058,75.811386 
	C754.593323,81.164986 756.576416,86.369423 758.331177,91.634483 
	C758.776978,91.653885 759.222778,91.673294 759.668579,91.692696 
	C761.757568,85.851700 764.065369,80.073936 765.784363,74.125977 
	C766.223267,72.607132 764.797058,70.549263 763.884644,67.647972 
	C766.964294,66.260696 770.953308,66.892113 776.442139,67.892937 
	C768.693787,72.493881 768.661743,79.875153 766.264709,85.932663 
	C761.876709,97.021408 758.536499,108.524307 754.163452,119.619606 
	C750.657166,128.515533 746.886597,130.913605 737.694458,129.727692 
	C734.016418,129.253159 730.687439,126.072914 726.463928,123.713264 
	C718.419006,132.374130 706.381287,129.843658 694.904907,129.831161 
	C693.621948,129.829773 692.265198,129.359222 691.071167,128.821060 
	C687.634949,127.272217 683.703735,126.208084 683.091797,121.520302 
	C682.453125,116.627922 685.767944,114.412567 689.653503,112.167839 
	C683.675964,104.802483 687.216003,99.330719 692.873230,94.923653 
	C690.122559,90.669838 687.505127,86.622063 685.046875,82.820534 
	C682.257935,83.392143 678.875000,84.402916 675.440613,84.627525 
	C674.132935,84.713043 672.366699,83.264366 671.398499,82.046570 
	C668.355103,78.218697 670.381836,75.103615 673.793030,72.366196 
	C673.330933,71.976143 672.868835,71.586098 672.406677,71.196053 
	C670.903381,72.593155 668.656799,73.725540 668.046021,75.440529 
	C666.617188,79.452156 665.675354,83.703102 665.104675,87.933800 
	C664.641357,91.368752 665.076843,94.917168 664.982727,98.411736 
	C664.877686,102.312477 664.520386,106.266525 670.198303,106.803856 
	C667.074341,109.626740 648.227234,109.901550 643.873230,107.411926 
	C650.969482,103.546860 646.960876,96.903130 647.999756,90.992210 
M750.914734,116.353104 
	C751.569336,114.192833 752.223938,112.032570 752.878540,109.872307 
	C752.447998,110.122383 752.017395,110.372459 751.586853,110.622536 
	C749.404846,108.570580 746.284790,106.917267 745.212341,104.393753 
	C741.652039,96.016174 738.950256,87.278519 735.671509,78.774452 
	C733.996887,74.430893 732.861328,69.451553 727.183228,68.192307 
	C724.003479,67.487122 720.849854,66.663879 716.886353,65.699677 
	C718.219971,67.853355 719.462463,69.675949 720.512390,71.603470 
	C721.747498,73.871193 723.466370,76.128601 723.845825,78.566315 
	C725.698547,90.468315 717.709839,95.407570 708.491516,95.930893 
	C705.312805,96.111351 702.115234,95.959587 698.926270,95.959587 
	C698.837952,96.512787 698.749634,97.065987 698.661316,97.619186 
	C711.514343,98.971092 727.200684,94.852119 730.687683,113.663803 
	C738.293579,112.666031 742.314819,113.245766 743.085999,116.385986 
	C743.785706,119.234604 742.812073,122.494225 742.535278,126.106079 
	C747.347656,125.710556 748.342407,120.632271 750.914734,116.353104 
M716.437073,123.009254 
	C719.810242,118.748192 718.994202,115.428040 713.711914,114.603455 
	C708.697449,113.820686 703.496765,114.133110 698.381165,114.201729 
	C697.612549,114.212044 696.426514,115.390923 696.172485,116.248207 
	C694.536133,121.770103 697.614441,126.833817 703.320251,126.705688 
	C707.539246,126.610939 711.716614,124.659088 716.437073,123.009254 
M708.490662,78.046181 
	C708.318665,76.738052 708.413696,75.313446 707.906921,74.151344 
	C707.277527,72.708366 706.150269,71.482483 705.238098,70.162842 
	C704.506897,71.497032 703.221619,72.800446 703.145508,74.171013 
	C702.888672,78.793922 702.918640,83.448471 703.170471,88.072876 
	C703.233337,89.227791 704.540466,90.314964 705.275757,91.433258 
	C706.108154,90.515030 707.481140,89.696632 707.672546,88.660019 
	C708.267395,85.439407 708.413696,82.135971 708.490662,78.046181 
z"/>
<path fill="#003049" opacity="1.000000" stroke="none" 
	d="
M429.972900,86.999046 
	C429.992310,91.662117 429.760468,95.845718 430.104614,99.981400 
	C430.315643,102.517311 431.409302,104.979782 432.341248,108.315018 
	C425.081238,109.886368 417.126068,108.707535 410.051605,108.821541 
	C410.778748,104.107628 411.821716,100.159332 411.915771,96.188545 
	C412.160309,85.869270 412.111694,75.537102 411.860626,65.217850 
	C411.818634,63.491375 410.596680,60.901817 409.202148,60.252357 
	C402.702942,57.225479 401.852142,52.244884 407.621857,47.405811 
	C406.316833,45.011787 403.994110,43.893967 403.273865,46.978584 
	C401.937866,52.700275 401.750183,58.707668 401.382782,64.614655 
	C401.339142,65.316338 403.062225,66.345703 404.141693,66.840942 
	C405.328217,67.385284 406.717590,67.487450 408.012115,67.780807 
	C407.803009,68.682365 407.773315,68.984390 407.726624,68.987045 
	C399.765717,69.439713 400.986420,75.276924 400.998199,80.418060 
	C401.011963,86.413330 401.074249,92.409828 400.976471,98.403526 
	C400.916565,102.075233 400.728058,105.685806 404.915619,108.237106 
	C396.662079,108.237106 388.408539,108.237106 380.154999,108.237106 
	C385.225159,105.404503 383.941284,100.800797 383.981659,96.719818 
	C384.047546,90.059044 384.036438,83.396767 383.979034,76.735802 
	C383.950867,73.465172 384.870239,69.630165 380.911316,69.484848 
	C382.336212,65.536545 384.182800,62.089485 384.795807,58.435482 
	C387.627686,41.554653 403.878693,39.031841 415.156311,44.335392 
	C418.446747,45.882801 420.799469,46.099075 423.889130,44.625824 
	C428.510773,42.422039 429.842102,43.313374 429.879974,48.531387 
	C429.971802,61.186920 429.944214,73.843315 429.972900,86.999046 
z"/>
<path fill="#003049" opacity="1.000000" stroke="none" 
	d="
M336.032257,81.032410 
	C333.664337,82.341568 331.401764,84.476685 328.907410,84.794930 
	C322.973938,85.551964 321.337494,83.669464 318.104187,75.305672 
	C317.413635,78.072990 316.326782,80.811363 316.122009,83.614182 
	C315.782928,88.254929 316.013519,92.937195 316.001221,97.601967 
	C315.990509,101.656021 315.014496,106.187531 321.354584,106.964363 
	C317.990814,109.429810 273.383881,109.890289 269.193756,108.284088 
	C269.830017,104.346016 270.768524,100.738312 270.923096,97.097336 
	C271.198486,90.611557 271.022552,84.105537 270.990204,77.608208 
	C270.972504,74.054878 272.007233,70.011673 265.875061,69.055321 
	C266.257812,68.463043 266.640594,67.870773 267.023376,67.278496 
	C269.971741,67.185478 272.921265,66.986290 275.868317,67.017296 
	C291.003082,67.176460 288.791595,65.185936 288.992554,79.906708 
	C289.090332,87.069267 289.127380,94.235992 288.990417,101.396988 
	C288.924591,104.838783 290.468750,106.324699 293.721771,106.254196 
	C296.807800,106.187317 298.052460,104.556778 298.013397,101.448814 
	C297.906616,92.953590 298.176666,84.449310 297.876007,75.963547 
	C297.787933,73.477776 296.288727,71.041985 295.218414,67.954880 
	C297.599243,65.845100 313.405396,66.220779 315.497437,68.069908 
	C321.643127,67.762184 326.397919,66.795425 330.813751,67.627502 
	C332.851562,68.011490 334.615570,71.735611 335.764618,74.279190 
	C336.518341,75.947716 335.949066,78.213928 335.987244,80.641319 
	C336.002197,81.070168 336.032257,81.032402 336.032257,81.032410 
z"/>
<path fill="#003049" opacity="1.000000" stroke="none" 
	d="
M498.847565,102.265579 
	C498.937592,87.686035 498.991821,73.526596 498.996826,59.367142 
	C498.998199,55.520180 499.953979,51.220741 494.805023,48.667870 
	C496.314056,48.448708 497.822266,48.046276 499.332245,48.039490 
	C510.993408,47.987034 522.657654,48.155773 534.314697,47.931881 
	C538.312012,47.855110 540.330322,49.393017 540.504395,53.185131 
	C540.688782,57.200661 540.545898,61.231213 540.545898,65.255211 
	C540.000366,65.446754 539.454834,65.638298 538.909302,65.829849 
	C537.778198,64.258034 536.446411,62.791813 535.553528,61.094673 
	C532.836182,55.929592 528.829773,52.642921 523.028748,51.470543 
	C519.953857,50.849106 518.071106,51.455212 518.061096,54.947933 
	C518.044861,60.611618 518.019409,66.275581 518.058105,71.939011 
	C518.085510,75.954247 520.494568,76.851723 523.177734,74.644096 
	C526.107239,72.233788 528.277344,68.900414 531.266235,65.397736 
	C531.785217,66.461464 532.797302,67.595543 532.828735,68.756195 
	C533.004639,75.248116 533.024658,81.748199 532.883728,88.240845 
	C532.860107,89.324768 531.784851,90.385841 531.195618,91.457474 
	C530.406311,90.597839 529.582153,89.767357 528.834290,88.873016 
	C526.673157,86.288544 524.866455,83.275505 522.294800,81.209793 
	C520.348633,79.646484 518.078003,80.381050 518.071777,83.637703 
	C518.060547,89.467636 518.081970,95.297646 518.063354,101.127541 
	C518.053223,104.292343 519.981995,105.122482 522.661011,104.921944 
	C529.796875,104.387764 534.448669,100.158752 537.994202,94.392952 
	C538.989197,92.774971 539.797241,91.042046 540.690979,89.361832 
	C541.300903,89.444000 541.910828,89.526169 542.520752,89.608337 
	C542.679932,93.378609 542.951965,97.148193 542.974915,100.919296 
	C543.023926,108.967697 542.971069,108.984955 535.024780,108.994301 
	C523.363403,109.008018 511.701752,109.034477 500.040955,108.950851 
	C498.246338,108.937988 496.455780,108.365707 493.860352,107.911682 
	C496.032806,105.610168 497.413025,104.147919 498.847565,102.265579 
z"/>
<path fill="#003049" opacity="1.000000" stroke="none" 
	d="
M576.022522,66.550041 
	C578.222717,66.264526 580.045593,66.023056 581.867188,66.032722 
	C590.333984,66.077637 594.743896,70.351242 594.948303,78.911835 
	C595.103271,85.404755 595.065552,91.904999 594.973755,98.400009 
	C594.921814,102.073318 594.735229,105.679321 598.907593,108.240250 
	C590.978943,108.240250 583.050232,108.240250 576.274719,108.240250 
	C576.885376,104.247543 577.894836,100.608315 577.901917,96.967125 
	C577.915527,90.000206 577.429382,83.027512 576.968506,76.069267 
	C576.893494,74.936577 575.883789,73.865768 575.306091,72.766357 
	C574.099670,73.524033 572.436401,74.012405 571.793762,75.102455 
	C570.828552,76.739639 570.157288,78.785873 570.100342,80.680405 
	C569.895142,87.504051 569.863586,94.341034 570.066528,101.164055 
	C570.130859,103.328056 571.132263,105.464195 571.879272,108.267792 
	C564.106201,108.267792 556.138794,108.267792 548.171387,108.267792 
	C553.225281,105.384865 551.937866,100.779373 551.980896,96.694893 
	C552.049316,90.199158 552.033508,83.701897 551.983398,77.205826 
	C551.957092,73.808594 553.010376,69.855927 546.825317,69.212486 
	C547.193481,68.750153 547.561646,68.287819 547.929810,67.825493 
	C549.206177,67.557228 550.498413,67.000557 551.756287,67.069420 
	C558.008301,67.411720 564.246399,68.059280 570.500549,68.275146 
	C572.195251,68.333649 573.928894,67.262451 576.022522,66.550041 
z"/>
<path fill="#003049" opacity="1.000000" stroke="none" 
	d="
M253.476624,67.642479 
	C254.528366,68.652977 255.815018,69.754868 255.854889,70.900185 
	C256.063416,76.887779 256.059723,82.889664 255.871002,88.878433 
	C255.832611,90.096581 254.683151,91.279709 254.045898,92.478973 
	C253.283905,91.568726 252.403687,90.731354 251.787262,89.731384 
	C250.830673,88.179588 250.441284,85.962135 249.109467,85.031998 
	C247.132935,83.651611 244.577515,82.771538 242.188522,82.553093 
	C241.626999,82.501755 240.266464,85.907318 240.111023,87.791626 
	C239.783524,91.761398 240.181992,95.786316 239.963379,99.771103 
	C239.727646,104.067833 240.994873,106.521652 245.811981,106.053627 
	C247.122513,105.926308 248.493515,106.421463 250.467361,106.729279 
	C246.924423,109.481133 222.973709,109.844650 217.583237,107.535049 
	C223.257828,105.192375 221.972702,100.467445 221.986221,96.224075 
	C222.024963,84.067406 222.009933,71.910507 221.991302,59.753735 
	C221.985825,56.180702 222.816223,52.163834 217.626602,51.139816 
	C217.276199,51.070675 217.116440,50.035400 216.578796,48.767303 
	C218.647232,48.479729 220.350510,48.046310 222.055969,48.037514 
	C233.712845,47.977383 245.372314,48.134007 257.026215,47.938351 
	C261.173248,47.868729 263.240875,49.139664 263.223145,53.516087 
	C263.210480,56.646847 263.896698,59.782207 263.856598,62.910202 
	C263.841064,64.120766 262.683075,65.316673 262.045502,66.519249 
	C261.006500,65.601402 259.818512,64.804619 258.956238,63.743206 
	C256.291595,60.463173 253.948380,56.896057 251.060867,53.836288 
	C249.974045,52.684608 247.774567,52.381603 246.017242,52.104534 
	C241.950592,51.463348 239.740555,52.907211 239.957535,57.500847 
	C240.216568,62.984470 240.016144,68.488960 240.055328,73.984116 
	C240.080200,77.468414 241.610748,78.097145 244.910553,77.090157 
	C249.744446,75.615036 250.995163,71.380562 253.476624,67.642479 
z"/>
<path fill="#003049" opacity="1.000000" stroke="none" 
	d="
M469.703979,67.056885 
	C473.062073,67.035645 476.021393,67.035645 478.980743,67.035645 
	C479.163330,67.626434 479.345886,68.217232 479.528473,68.808022 
	C472.716187,70.418556 473.503448,76.666794 471.786041,81.040810 
	C467.310760,92.438538 463.914215,104.254692 459.765076,115.787987 
	C457.985474,120.734634 456.084106,125.768768 450.977570,128.677338 
	C446.583069,131.180344 442.348877,131.751541 437.745178,129.361710 
	C433.083740,126.941872 431.081543,121.580399 433.329926,116.882599 
	C435.127228,113.127190 438.701965,113.721428 441.642365,114.191788 
	C443.741669,114.527596 446.608948,115.981712 447.299011,117.681549 
	C448.125824,119.718330 447.001282,122.547272 446.652069,125.653770 
	C447.374207,125.335335 449.363800,125.052879 450.319916,123.907623 
	C452.092316,121.784645 453.374451,119.215881 454.653625,116.726334 
	C456.511078,113.111320 459.076538,109.372391 451.862305,108.317802 
	C450.391724,108.102821 449.023346,104.866188 448.223663,102.785774 
	C444.720184,93.671265 441.535767,84.433998 438.021027,75.324036 
	C437.100342,72.937599 435.409149,70.848419 433.323975,67.378105 
	C441.885193,66.742310 449.945038,66.859634 456.615204,67.234932 
	C456.836975,71.394501 456.508881,74.521416 457.263824,77.360313 
	C458.603851,82.399391 460.600922,87.263756 462.323120,92.201210 
	C462.764679,92.242279 463.206268,92.283348 463.647858,92.324417 
	C465.793945,85.787308 468.015656,79.272675 469.973602,72.679688 
	C470.178162,71.990807 468.966522,70.684135 468.162292,69.930588 
	C465.938873,67.847404 467.269470,67.361710 469.703979,67.056885 
z"/>
<path fill="#003049" opacity="1.000000" stroke="none" 
	d="
M623.133301,104.289276 
	C626.954590,103.947662 630.877319,104.185089 633.799683,102.589912 
	C636.463562,101.135811 638.042542,97.694122 640.099731,95.128494 
	C640.732483,95.485222 641.365295,95.841957 641.998047,96.198685 
	C640.809082,98.804565 640.094849,101.797676 638.343506,103.944847 
	C632.743469,110.810600 622.667847,111.676308 613.438477,108.808174 
	C604.555115,106.047592 600.074280,99.112801 600.004211,89.954147 
	C599.857178,70.735207 614.519531,60.814384 632.722168,67.816620 
	C638.854431,70.175591 643.251282,77.657967 641.681763,83.921219 
	C641.360535,85.203323 639.010254,86.706932 637.494629,86.825813 
	C632.528748,87.215317 627.515686,87.077263 622.522339,87.016075 
	C619.376160,86.977531 617.988586,88.347725 618.010315,91.512894 
	C618.043335,96.328629 618.808594,100.795128 623.133301,104.289276 
M624.325439,72.789742 
	C623.340393,71.875198 622.355286,70.960655 621.370239,70.046135 
	C620.563599,70.990036 619.358582,71.815971 619.036560,72.903397 
	C618.440369,74.916451 617.841003,77.188774 618.241577,79.148987 
	C618.528015,80.550217 620.444458,81.618301 621.633545,82.835052 
	C622.729004,81.697945 624.416626,80.720001 624.775574,79.384903 
	C625.263977,77.568008 624.737732,75.478363 624.325439,72.789742 
z"/>
<path fill="#003049" opacity="1.000000" stroke="none" 
	d="
M335.991089,81.091759 
	C343.162598,67.407806 355.120514,62.519363 368.437866,67.844475 
	C374.063507,70.093964 378.906860,78.088913 377.653992,83.922104 
	C377.385315,85.173096 375.016571,86.707115 373.514618,86.824638 
	C368.551758,87.212997 363.542053,87.075554 358.551849,87.015297 
	C355.432983,86.977638 353.783417,88.295761 354.065887,91.473503 
	C354.284607,93.934128 354.457092,96.455101 355.138855,98.807602 
	C357.049896,105.401520 364.248474,107.518097 369.576019,103.022766 
	C371.303802,101.564865 372.440460,99.425667 373.992340,97.730721 
	C374.631409,97.032753 375.652405,96.684494 376.499695,96.177162 
	C376.672333,97.190918 377.202026,98.300507 376.959839,99.202919 
	C375.357361,105.173874 370.774292,108.424591 365.278931,109.574722 
	C353.119507,112.119591 338.272095,109.360458 335.607971,92.176636 
	C335.090851,88.841125 335.839386,85.309410 336.018188,81.450302 
	C336.032257,81.032402 336.002197,81.070168 335.991089,81.091759 
M358.155182,70.207291 
	C352.513000,72.096718 354.247528,76.907738 354.292389,80.792732 
	C354.304260,81.821175 356.429932,83.443939 357.745544,83.624619 
	C358.647186,83.748444 360.788483,81.767166 360.711639,80.869286 
	C360.414795,77.398560 359.450012,73.984978 358.155182,70.207291 
z"/>
<path fill="#003049" opacity="1.000000" stroke="none" 
	d="
M166.002441,25.005310 
	C166.001541,69.307961 166.029984,113.112114 165.911301,156.915863 
	C165.905502,159.056671 164.611725,161.194000 163.917725,163.332947 
	C163.280090,161.135300 162.091064,158.938904 162.086029,156.739792 
	C161.978897,109.937965 161.994690,63.135826 162.035309,16.333792 
	C162.037277,14.061838 162.484756,11.790272 163.596191,9.535626 
	C167.383102,14.204418 165.376801,19.546946 166.002441,25.005310 
z"/>
<path fill="#003049" opacity="0" stroke="none" 
	d="
M270.262085,54.768593 
	C270.756744,49.962299 272.027924,46.270157 277.490265,46.009159 
	C285.148346,45.643253 287.625702,46.669674 288.942535,51.113922 
	C290.351776,55.870022 287.927765,61.076115 283.614319,62.557533 
	C278.248962,64.400223 272.794128,62.033863 270.933533,57.048050 
	C270.701233,56.425571 270.519470,55.784237 270.262085,54.768593 
z"/>
<path fill="#000000" opacity="0" stroke="none" 
	d="
M750.827087,116.714500 
	C748.342407,120.632271 747.347656,125.710556 742.535278,126.106079 
	C742.812073,122.494225 743.785706,119.234604 743.085999,116.385986 
	C742.314819,113.245766 738.293579,112.666031 730.687683,113.663803 
	C727.200684,94.852119 711.514343,98.971092 698.661316,97.619186 
	C698.749634,97.065987 698.837952,96.512787 698.926270,95.959587 
	C702.115234,95.959587 705.312805,96.111351 708.491516,95.930893 
	C717.709839,95.407570 725.698547,90.468315 723.845825,78.566315 
	C723.466370,76.128601 721.747498,73.871193 720.512390,71.603470 
	C719.462463,69.675949 718.219971,67.853355 716.886353,65.699677 
	C720.849854,66.663879 724.003479,67.487122 727.183228,68.192307 
	C732.861328,69.451553 733.996887,74.430893 735.671509,78.774452 
	C738.950256,87.278519 741.652039,96.016174 745.212341,104.393753 
	C746.284790,106.917267 749.404846,108.570580 751.586853,110.622536 
	C752.017395,110.372459 752.447998,110.122383 752.878540,109.872307 
	C752.223938,112.032570 751.569336,114.192833 750.827087,116.714500 
z"/>
<path fill="#000000" opacity="0" stroke="none" 
	d="
M716.174805,123.271927 
	C711.716614,124.659088 707.539246,126.610939 703.320251,126.705688 
	C697.614441,126.833817 694.536133,121.770103 696.172485,116.248207 
	C696.426514,115.390923 697.612549,114.212044 698.381165,114.201729 
	C703.496765,114.133110 708.697449,113.820686 713.711914,114.603455 
	C718.994202,115.428040 719.810242,118.748192 716.174805,123.271927 
z"/>
<path fill="#000000" opacity="0" stroke="none" 
	d="
M708.612366,78.455429 
	C708.413696,82.135971 708.267395,85.439407 707.672546,88.660019 
	C707.481140,89.696632 706.108154,90.515030 705.275757,91.433258 
	C704.540466,90.314964 703.233337,89.227791 703.170471,88.072876 
	C702.918640,83.448471 702.888672,78.793922 703.145508,74.171013 
	C703.221619,72.800446 704.506897,71.497032 705.238098,70.162834 
	C706.150269,71.482483 707.277527,72.708366 707.906921,74.151344 
	C708.413696,75.313446 708.318665,76.738052 708.612366,78.455429 
z"/>
<path fill="#000000" opacity="0" stroke="none" 
	d="
M624.486023,73.147705 
	C624.737732,75.478363 625.263977,77.568008 624.775574,79.384903 
	C624.416626,80.720001 622.729004,81.697945 621.633545,82.835037 
	C620.444458,81.618301 618.528015,80.550217 618.241577,79.148987 
	C617.841003,77.188774 618.440369,74.916451 619.036560,72.903397 
	C619.358582,71.815971 620.563599,70.990036 621.370239,70.046127 
	C622.355286,70.960655 623.340393,71.875198 624.486023,73.147705 
z"/>
<path fill="#000000" opacity="0" stroke="none" 
	d="
M358.444641,70.378700 
	C359.450012,73.984978 360.414795,77.398560 360.711639,80.869286 
	C360.788483,81.767166 358.647186,83.748444 357.745544,83.624619 
	C356.429932,83.443939 354.304260,81.821175 354.292389,80.792732 
	C354.247528,76.907738 352.513000,72.096718 358.444641,70.378700 
z"/>
</svg>