<svg version="1.1" id="Layer_1" xmlns="http://www.w3.org/2000/svg" xmlnsXlink="http://www.w3.org/1999/xlink" x="0px" y="0px"
	 width="100%" viewBox="0 0 780 170" enableBackground="new 0 0 780 170" xmlSpace="preserve">
<path fill="#000000" opacity="0" stroke="none" 
	d="
M570.000000,171.000000 
	C380.049866,171.000000 190.599716,171.000000 1.074785,171.000000 
	C1.074785,114.398186 1.074785,57.796242 1.074785,1.097148 
	C260.999969,1.097148 521.000000,1.097148 780.972168,1.097148 
	C780.972168,57.733578 780.972168,114.366798 780.972168,171.000000 
	C710.796265,171.000000 640.648132,171.000000 570.000000,171.000000 
M332.988342,80.982521 
	C330.880127,88.753471 332.208893,96.007553 337.150879,102.239189 
	C340.843750,106.895767 346.154053,108.642891 352.138000,109.141823 
	C362.298706,109.988998 372.981873,107.220131 374.802856,95.342537 
	C373.696838,94.897255 372.592957,94.452835 371.444427,93.990440 
	C369.309479,102.442741 364.434479,105.022263 357.615967,103.965012 
	C352.655090,103.195778 349.871338,94.747414 351.727631,85.810638 
	C359.384857,85.810638 367.140503,85.810638 374.857819,85.810638 
	C375.285797,74.927048 372.844177,70.017044 365.463165,66.895645 
	C358.505768,63.953392 351.599304,64.520065 344.585236,67.077568 
	C338.128998,69.431671 335.518463,74.923065 332.962463,79.460152 
	C332.973694,77.295372 333.654755,74.823898 332.837311,73.038567 
	C331.646942,70.438835 329.628784,66.677147 327.516907,66.356926 
	C322.936401,65.662422 318.072815,66.835121 312.828247,67.287140 
	C312.139130,65.777359 298.972931,64.695251 289.683167,67.703964 
	C291.402924,68.391624 293.122650,69.079285 294.780273,69.742104 
	C294.780273,81.372726 294.780273,92.976227 294.780273,104.756065 
	C291.831635,104.756065 289.106079,104.756065 285.922485,104.756065 
	C285.922485,91.790092 285.922485,79.059135 285.922485,66.240631 
	C278.035248,66.240631 270.610291,66.240631 263.185333,66.240631 
	C263.020325,66.746918 262.855316,67.253212 262.690308,67.759499 
	C264.366119,68.391373 266.041931,69.023247 267.858826,69.708313 
	C267.858826,81.219536 267.858826,92.838341 267.858826,104.145958 
	C266.300659,105.080154 264.983551,105.869804 263.666473,106.659454 
	C263.844574,107.008934 264.022675,107.358421 264.200775,107.707901 
	C282.426147,107.707901 300.651550,107.707901 318.876923,107.707901 
	C319.011780,107.138901 319.146637,106.569901 319.281494,106.000900 
	C317.361725,105.509346 315.441956,105.017784 312.922211,104.372620 
	C313.994293,94.217758 310.742035,83.367256 316.358276,73.357536 
	C317.042633,77.547234 315.941040,82.574013 321.666504,83.756714 
	C325.820007,84.614685 330.157104,84.634064 332.988342,80.982521 
M12.542199,91.955894 
	C11.246529,93.250961 10.083380,94.725357 8.626346,95.802063 
	C5.966985,97.767242 4.899468,100.781181 6.353286,103.136696 
	C7.384816,104.808014 10.638890,105.809219 12.936735,105.875900 
	C22.885002,106.164589 32.846436,105.999565 43.041187,105.999565 
	C42.852921,107.269073 42.851112,108.101730 42.600159,108.850937 
	C38.550896,120.939728 34.322582,132.972000 30.531487,145.140656 
	C29.845621,147.342163 30.010483,151.219620 31.391657,152.340332 
	C33.765564,154.266586 36.840889,153.056381 39.117687,150.457642 
	C45.197025,143.518585 51.377018,136.664673 57.634750,129.885590 
	C70.751129,115.676491 84.022789,101.609367 97.005516,87.279930 
	C98.673370,85.439072 100.265022,81.918007 99.568901,80.033340 
	C98.962860,78.392555 95.096558,77.209984 92.630028,77.132889 
	C82.517448,76.816788 72.389236,77.000862 62.102230,77.000862 
	C62.236012,76.116783 62.237259,75.627739 62.386921,75.189362 
	C66.713737,62.515800 71.091751,49.859581 75.376083,37.171726 
	C76.999809,32.363140 76.029510,30.773617 71.273064,31.124825 
	C69.071503,31.287384 66.414131,32.246311 64.922569,33.778133 
	C59.999699,38.833893 55.616508,44.409447 50.839214,49.613873 
	C41.786190,59.476322 32.553757,69.174072 23.498991,79.034950 
	C19.843555,83.015823 16.458843,87.245285 12.542199,91.955894 
M751.935059,80.560005 
	C750.685303,76.917450 749.435547,73.274895 748.249634,69.818336 
	C749.587524,69.012260 750.925903,68.205902 752.264343,67.399544 
	C752.032104,66.914688 751.799866,66.429832 751.567627,65.944977 
	C743.441650,65.944977 735.315674,65.944977 727.151245,65.944977 
	C728.260132,57.977081 727.146912,54.605186 722.828979,54.149242 
	C720.168274,53.868290 716.352478,53.800869 714.882202,55.360157 
	C712.358154,58.037067 711.263489,62.061642 709.849060,64.948372 
	C705.059570,65.201210 699.846985,65.124680 694.745728,65.840668 
	C689.206421,66.618141 685.797852,70.591965 683.201965,75.548836 
	C682.857300,69.369675 681.644104,66.394043 677.671753,65.363197 
	C672.033569,63.900101 666.611633,64.866196 662.367920,70.112396 
	C662.033875,68.348480 661.815186,67.193993 661.665894,66.405830 
	C654.160156,66.405830 647.120178,66.405830 640.080200,66.405830 
	C639.958313,66.884171 639.836426,67.362511 639.714478,67.840851 
	C641.349060,68.429199 642.983582,69.017555 644.748413,69.652802 
	C644.748413,81.249641 644.748413,93.013687 644.748413,104.320564 
	C642.801392,105.080719 641.236572,105.691673 639.671753,106.302620 
	C639.831177,106.775070 639.990662,107.247528 640.150085,107.719978 
	C649.391052,107.719978 658.632019,107.719978 667.873047,107.719978 
	C668.024963,107.156670 668.176880,106.593369 668.328796,106.030060 
	C666.399597,105.524857 664.470398,105.019653 662.027893,104.380043 
	C662.621826,94.632324 660.015747,84.314827 665.029236,74.693787 
	C665.898315,73.025993 667.287476,71.589081 668.631104,70.239334 
	C668.935486,69.933571 670.051758,70.436005 670.794312,70.566406 
	C670.521301,71.362129 670.493042,72.490738 669.936096,72.900246 
	C665.932800,75.843887 665.782227,79.364037 669.670471,82.287743 
	C673.562988,85.214699 677.000610,84.714760 681.612000,81.219589 
	C684.564575,85.542831 687.553467,89.919304 690.405334,94.095131 
	C683.079529,96.937973 681.388062,104.618637 687.450562,111.516838 
	C680.707336,113.098801 677.126038,119.819885 681.366333,123.609116 
	C684.212402,126.152428 688.205505,128.234924 691.938110,128.774155 
	C697.815369,129.623199 703.944946,129.428894 709.893982,128.879059 
	C715.812683,128.332016 721.103149,125.856682 724.669861,120.719749 
	C730.282837,131.764069 740.273743,133.060730 748.367920,123.045029 
	C751.536377,119.124390 753.146973,113.813934 754.945435,108.943825 
	C758.801392,98.502243 762.230652,87.903694 766.022827,77.437584 
	C767.276428,73.977951 766.590210,68.843933 772.510925,68.675697 
	C772.693604,68.670525 772.835510,67.229248 773.026794,66.311646 
	C768.246948,66.311646 763.688782,66.311646 759.130554,66.311646 
	C758.991455,66.805428 758.852295,67.299217 758.713196,67.792999 
	C760.429871,68.412933 762.146545,69.032860 764.061584,69.724411 
	C761.511292,77.000107 758.965088,84.263947 756.056213,92.562706 
	C754.514160,88.243195 753.286133,84.803345 751.935059,80.560005 
M380.999756,91.490532 
	C380.999756,95.941582 380.999756,100.392632 380.999756,104.178108 
	C378.753113,105.082962 377.214233,105.702766 375.675354,106.322563 
	C375.844788,106.786736 376.014252,107.250900 376.183685,107.715073 
	C385.079407,107.715073 393.975098,107.715073 402.870789,107.715073 
	C403.019073,107.238991 403.167389,106.762909 403.315674,106.286827 
	C401.609314,105.630325 399.902985,104.973816 398.349060,104.375954 
	C398.349060,92.569611 398.349060,80.838486 398.349060,68.992752 
	C400.527344,68.992752 402.375427,69.141106 404.176239,68.914101 
	C404.826263,68.832161 405.362762,67.849503 405.951050,67.277855 
	C405.380402,66.854797 404.835327,66.115555 404.234406,66.066963 
	C402.299408,65.910507 400.343811,66.008698 397.598572,66.008698 
	C398.105591,59.653591 398.384216,53.775646 399.173462,47.967094 
	C399.367615,46.538315 401.226410,45.335720 402.319885,44.029114 
	C403.370911,44.913902 404.421936,45.798695 404.351501,45.739410 
	C402.551361,48.684204 400.199127,50.767063 400.434814,52.497437 
	C401.005066,56.684196 403.234894,60.145397 408.770325,58.973644 
	C408.770325,74.347198 408.770325,89.437820 408.770325,104.123070 
	C407.250580,105.072372 405.972168,105.870926 404.693756,106.669479 
	C404.887482,107.001160 405.081238,107.332840 405.274963,107.664520 
	C413.812561,107.664520 422.350159,107.664520 430.887756,107.664520 
	C431.034882,107.278084 431.182007,106.891655 431.329163,106.505219 
	C429.945251,105.729790 428.561340,104.954361 426.980774,104.068733 
	C426.980774,87.266670 427.005280,70.294113 426.973053,53.321667 
	C426.947052,39.614819 428.584625,40.295483 415.477966,45.669144 
	C408.769867,39.264912 400.387756,39.569775 393.029480,42.349384 
	C382.899536,46.176033 380.783478,55.812149 380.886444,65.286835 
	C378.823792,66.066925 377.257141,66.659431 375.690491,67.251930 
	C375.833466,67.725151 375.976440,68.198372 376.119415,68.671593 
	C377.669495,68.884323 379.219574,69.097046 380.999817,69.341362 
	C380.999817,76.548264 380.999817,83.521294 380.999756,91.490532 
M495.997833,63.509594 
	C495.997833,76.950447 495.997833,90.391304 495.997833,103.777802 
	C491.088043,104.189934 491.088043,104.189934 491.635651,107.653481 
	C507.713531,107.653481 523.770081,107.653481 539.668091,107.653481 
	C539.668091,100.919434 539.668091,94.537102 539.668091,88.154762 
	C535.795532,91.613708 533.235291,95.906281 529.879211,99.443871 
	C526.007446,103.525078 520.828064,104.628624 515.285889,103.742172 
	C515.285889,95.325562 515.285889,87.270599 515.285889,79.222641 
	C522.005981,79.603500 524.618408,83.804596 526.132996,89.397324 
	C526.368652,90.267639 528.237366,90.695702 530.001099,91.697594 
	C530.001099,82.861244 530.111145,75.215523 529.899353,67.578728 
	C529.861450,66.208641 528.494751,64.875397 527.741577,63.525139 
	C524.896851,71.275986 522.015259,73.985435 515.177368,74.778038 
	C515.177368,66.644859 515.177368,58.532150 515.177368,50.426407 
	C523.997620,50.065765 528.780579,53.076317 533.037170,60.934776 
	C533.952820,62.625217 535.414551,64.019859 536.624756,65.550751 
	C537.158936,65.271439 537.693115,64.992126 538.227295,64.712814 
	C537.921570,58.895271 537.615845,53.077728 537.309021,47.239578 
	C521.378479,47.239578 506.282776,47.239578 491.187073,47.239578 
	C491.020966,47.750198 490.854889,48.260822 490.688782,48.771442 
	C492.360229,49.398361 494.031677,50.025284 496.001038,50.763950 
	C496.001038,54.559849 496.001038,58.536854 495.997833,63.509594 
M555.474426,65.999763 
	C551.691345,65.999763 547.908264,65.999763 544.125244,65.999763 
	C543.976807,66.572792 543.828430,67.145828 543.679993,67.718857 
	C545.384277,68.368599 547.088562,69.018333 548.821472,69.679001 
	C548.821472,81.302689 548.821472,92.924416 548.821472,104.204979 
	C546.938416,104.994858 545.328552,105.670135 543.718689,106.345406 
	C543.923218,106.770653 544.127747,107.195892 544.332275,107.621132 
	C552.852478,107.621132 561.372620,107.621132 570.069946,107.621132 
	C564.508728,96.381027 565.877075,75.409943 572.861816,70.700027 
	C576.258667,81.995750 574.569092,93.295815 575.012817,104.050293 
	C573.309875,105.074127 571.993530,105.865532 570.677185,106.656929 
	C570.854797,107.000473 571.032410,107.344025 571.210083,107.687569 
	C579.766907,107.687569 588.323792,107.687569 596.880676,107.687569 
	C597.024597,107.224594 597.168518,106.761612 597.312439,106.298637 
	C595.598083,105.618019 593.883728,104.937401 592.000000,104.189552 
	C592.000000,95.431458 592.156372,86.605644 591.927185,77.789864 
	C591.828003,73.973015 591.310730,70.250229 587.430054,67.684647 
	C581.410706,63.705082 575.570496,63.846561 569.445984,67.041199 
	C568.791565,67.382561 567.989441,67.780937 567.317261,67.691490 
	C563.682495,67.207825 560.066956,66.578804 555.474426,65.999763 
M214.914963,50.952461 
	C216.182281,51.007862 217.449600,51.063267 218.757080,51.120426 
	C218.757080,69.244690 218.757080,86.997299 218.757080,104.331276 
	C216.821808,105.075066 215.247162,105.680267 213.672516,106.285461 
	C213.826630,106.766647 213.980743,107.247833 214.134857,107.729019 
	C225.360733,107.729019 236.586594,107.729019 248.786362,107.729019 
	C245.403931,102.641182 240.345566,106.758514 237.316193,104.406425 
	C237.316193,96.598915 237.316193,88.861938 237.316193,81.357811 
	C247.483932,78.873634 247.404221,88.272972 250.957413,93.551506 
	C253.243240,90.140762 253.874359,75.234489 252.310287,64.604713 
	C250.752502,66.377831 249.419632,67.244186 249.066925,68.407692 
	C247.429794,73.807983 243.149582,76.930206 237.240753,76.619110 
	C237.240753,68.198479 237.240753,59.775211 237.240753,49.715652 
	C242.085526,51.322380 246.713333,51.969006 250.211990,54.306004 
	C252.882294,56.089672 254.003464,60.100056 256.050018,62.950249 
	C257.025726,64.309097 258.551025,65.273338 259.827362,66.416321 
	C260.323761,66.032936 260.820129,65.649544 261.316498,65.266159 
	C260.834930,59.266537 260.353394,53.266918 259.869049,47.232964 
	C244.014679,47.232964 228.598419,47.232964 212.584427,47.232964 
	C213.217621,48.632240 213.660416,49.610802 214.914963,50.952461 
M440.940430,89.706604 
	C442.281891,93.162666 444.177307,96.517052 444.834625,100.098663 
	C445.814636,105.438667 447.730316,109.037109 453.871979,108.187859 
	C453.482086,116.618126 447.209991,125.000076 442.297699,124.300171 
	C443.164124,123.031960 444.815735,121.716660 444.868988,120.339546 
	C445.066040,115.244270 445.013580,112.019730 436.097565,113.111053 
	C433.991669,113.368813 430.813843,114.590721 430.292725,116.110825 
	C429.098175,119.595421 428.288940,124.247299 431.591614,126.813477 
	C440.050354,133.385834 450.887512,129.520142 454.046570,120.991150 
	C456.223969,115.112488 458.692352,109.341125 460.846680,103.454460 
	C464.272491,94.093559 467.895599,84.779358 470.696289,75.228706 
	C471.709259,71.774368 471.761414,68.719269 476.320129,68.785675 
	C476.516998,68.788544 476.736603,67.231735 476.996246,66.200462 
	C472.146301,66.200462 467.700226,66.200462 463.254181,66.200462 
	C463.065796,66.703217 462.877441,67.205971 462.689056,67.708733 
	C464.343628,68.362068 465.998169,69.015404 467.894043,69.764030 
	C465.376648,76.973930 462.757080,84.476440 459.772980,93.022995 
	C456.864563,84.323380 454.386475,76.910980 452.105469,70.088043 
	C453.827911,68.945656 455.067566,68.123474 456.307190,67.301285 
	C456.091309,66.991638 455.875397,66.681984 455.659485,66.372330 
	C447.149078,66.372330 438.638702,66.372330 429.370758,66.372330 
	C431.248749,68.774330 433.091888,70.388374 433.986908,72.420090 
	C436.382294,77.857742 438.371124,83.474503 440.940430,89.706604 
M631.427368,86.000214 
	C633.873230,86.000214 636.319092,86.000214 639.002136,86.000214 
	C638.881836,79.174034 638.812866,72.917763 633.115967,68.637741 
	C628.571045,65.223190 623.263733,64.819977 617.796753,64.976097 
	C608.210693,65.249863 601.473145,69.494637 597.815125,78.534691 
	C595.141296,85.142319 597.366394,97.902924 602.121887,102.999985 
	C608.449890,109.782555 620.203979,110.173157 628.124084,107.983009 
	C635.037659,106.071228 637.916748,101.046135 638.214539,93.996735 
	C636.495117,94.668579 635.140991,95.743866 634.430115,97.145424 
	C631.785645,102.358574 627.429382,104.927757 622.340271,103.981552 
	C618.365540,103.242531 615.366882,99.080460 615.027527,93.595337 
	C614.877441,91.168648 615.002197,88.724945 615.002197,86.000328 
	C620.519287,86.000328 625.484253,86.000328 631.427368,86.000214 
M158.999741,91.500000 
	C158.999741,115.268913 158.999741,139.037827 158.999741,162.617477 
	C164.111221,164.056259 162.972748,160.651428 162.974243,158.445206 
	C163.007538,109.646461 163.001694,60.847694 162.988525,12.048933 
	C162.988174,10.758691 162.823242,9.468494 162.744690,8.318926 
	C158.548172,7.018954 158.989349,9.676496 158.990677,12.055577 
	C159.005249,38.203712 158.999771,64.351860 158.999741,91.500000 
M286.006989,50.474442 
	C285.137177,43.910988 280.080597,45.454399 275.795990,44.908226 
	C269.778381,44.141151 267.594635,48.399364 267.076385,53.135132 
	C266.580658,57.665371 270.528656,61.612629 275.347839,61.998390 
	C283.123993,62.620850 288.016968,57.725338 286.006989,50.474442 
z"/>
<path fill="#FCBF49" opacity="1.000000" stroke="none" 
	d="
M12.746563,91.658752 
	C16.458843,87.245285 19.843555,83.015823 23.498991,79.034950 
	C32.553757,69.174072 41.786190,59.476322 50.839214,49.613873 
	C55.616508,44.409447 59.999699,38.833893 64.922569,33.778133 
	C66.414131,32.246311 69.071503,31.287384 71.273064,31.124825 
	C76.029510,30.773617 76.999809,32.363140 75.376083,37.171726 
	C71.091751,49.859581 66.713737,62.515800 62.386921,75.189362 
	C62.237259,75.627739 62.236012,76.116783 62.102230,77.000862 
	C72.389236,77.000862 82.517448,76.816788 92.630028,77.132889 
	C95.096558,77.209984 98.962860,78.392555 99.568901,80.033340 
	C100.265022,81.918007 98.673370,85.439072 97.005516,87.279930 
	C84.022789,101.609367 70.751129,115.676491 57.634750,129.885590 
	C51.377018,136.664673 45.197025,143.518585 39.117687,150.457642 
	C36.840889,153.056381 33.765564,154.266586 31.391657,152.340332 
	C30.010483,151.219620 29.845621,147.342163 30.531487,145.140656 
	C34.322582,132.972000 38.550896,120.939728 42.600159,108.850937 
	C42.851112,108.101730 42.852921,107.269073 43.041187,105.999565 
	C32.846436,105.999565 22.885002,106.164589 12.936735,105.875900 
	C10.638890,105.809219 7.384816,104.808014 6.353286,103.136696 
	C4.899468,100.781181 5.966985,97.767242 8.626346,95.802063 
	C10.083380,94.725357 11.246529,93.250961 12.746563,91.658752 
z"/>
<path fill="#FCBF49" opacity="1.000000" stroke="none" 
	d="
M751.996582,80.961754 
	C753.286133,84.803345 754.514160,88.243195 756.056213,92.562706 
	C758.965088,84.263947 761.511292,77.000107 764.061584,69.724411 
	C762.146545,69.032860 760.429871,68.412933 758.713196,67.792999 
	C758.852295,67.299217 758.991455,66.805428 759.130554,66.311646 
	C763.688782,66.311646 768.246948,66.311646 773.026794,66.311646 
	C772.835510,67.229248 772.693604,68.670525 772.510925,68.675697 
	C766.590210,68.843933 767.276428,73.977951 766.022827,77.437584 
	C762.230652,87.903694 758.801392,98.502243 754.945435,108.943825 
	C753.146973,113.813934 751.536377,119.124390 748.367920,123.045029 
	C740.273743,133.060730 730.282837,131.764069 724.669861,120.719749 
	C721.103149,125.856682 715.812683,128.332016 709.893982,128.879059 
	C703.944946,129.428894 697.815369,129.623199 691.938110,128.774155 
	C688.205505,128.234924 684.212402,126.152428 681.366333,123.609116 
	C677.126038,119.819885 680.707336,113.098801 687.450562,111.516838 
	C681.388062,104.618637 683.079529,96.937973 690.405334,94.095131 
	C687.553467,89.919304 684.564575,85.542831 681.612000,81.219589 
	C677.000610,84.714760 673.562988,85.214699 669.670471,82.287743 
	C665.782227,79.364037 665.932800,75.843887 669.936096,72.900246 
	C670.493042,72.490738 670.521301,71.362129 670.794312,70.566406 
	C670.051758,70.436005 668.935486,69.933571 668.631104,70.239334 
	C667.287476,71.589081 665.898315,73.025993 665.029236,74.693787 
	C660.015747,84.314827 662.621826,94.632324 662.027893,104.380043 
	C664.470398,105.019653 666.399597,105.524857 668.328796,106.030060 
	C668.176880,106.593369 668.024963,107.156670 667.873047,107.719978 
	C658.632019,107.719978 649.391052,107.719978 640.150085,107.719978 
	C639.990662,107.247528 639.831177,106.775070 639.671753,106.302620 
	C641.236572,105.691673 642.801392,105.080719 644.748413,104.320564 
	C644.748413,93.013687 644.748413,81.249641 644.748413,69.652802 
	C642.983582,69.017555 641.349060,68.429199 639.714478,67.840851 
	C639.836426,67.362511 639.958313,66.884171 640.080200,66.405830 
	C647.120178,66.405830 654.160156,66.405830 661.665894,66.405830 
	C661.815186,67.193993 662.033875,68.348480 662.367920,70.112396 
	C666.611633,64.866196 672.033569,63.900101 677.671753,65.363197 
	C681.644104,66.394043 682.857300,69.369675 683.201965,75.548836 
	C685.797852,70.591965 689.206421,66.618141 694.745728,65.840668 
	C699.846985,65.124680 705.059570,65.201210 709.849060,64.948372 
	C711.263489,62.061642 712.358154,58.037067 714.882202,55.360157 
	C716.352478,53.800869 720.168274,53.868290 722.828979,54.149242 
	C727.146912,54.605186 728.260132,57.977081 727.151245,65.944977 
	C735.315674,65.944977 743.441650,65.944977 751.567627,65.944977 
	C751.799866,66.429832 752.032104,66.914688 752.264343,67.399544 
	C750.925903,68.205902 749.587524,69.012260 748.249634,69.818336 
	C749.435547,73.274895 750.685303,76.917450 751.996582,80.961754 
M748.058289,113.790771 
	C748.938721,111.956589 749.819092,110.122398 750.879456,107.913353 
	C748.040588,107.913353 745.734497,107.913353 743.677979,107.913353 
	C739.293457,96.215118 734.962219,84.803276 730.751282,73.347229 
	C729.234192,69.220078 726.450623,67.346252 722.097412,66.891479 
	C719.545654,66.624886 717.107117,65.274582 714.257263,64.286880 
	C715.127808,65.804977 715.992065,68.343048 717.685791,70.065727 
	C722.148071,74.604393 721.814087,80.272156 720.604309,85.348045 
	C719.528687,89.860764 715.884155,93.440598 710.571899,93.990547 
	C706.512878,94.410767 702.431641,94.615143 698.372192,95.031670 
	C697.018005,95.170616 695.700623,95.669258 694.366455,96.003479 
	C707.832520,97.873016 724.149414,93.043213 727.674133,113.452217 
	C731.064880,111.168037 735.356628,110.779366 738.389709,113.463593 
	C740.502258,115.333107 740.815369,119.235931 742.000916,122.414352 
	C739.586975,122.926910 738.493103,123.159172 736.915771,123.494095 
	C741.800903,125.816147 745.663818,122.418175 748.058289,113.790771 
M709.050598,124.965469 
	C710.289185,124.207520 711.975098,123.729591 712.664795,122.627991 
	C713.786133,120.836830 714.820862,118.618515 714.753235,116.618965 
	C714.721252,115.670860 712.129822,114.202744 710.574707,114.020203 
	C704.632507,113.322685 698.640259,113.051933 692.705078,112.624580 
	C693.861633,117.035378 690.964417,122.531807 696.068115,124.276581 
	C699.772461,125.542969 704.149902,124.840591 709.050598,124.965469 
M704.999451,72.862823 
	C704.362549,71.239464 703.725647,69.616112 703.088806,67.992752 
	C702.603821,68.019753 702.118896,68.046753 701.633911,68.073746 
	C701.089478,69.654137 700.145386,71.217110 700.075623,72.818192 
	C699.867188,77.602272 699.848633,82.409378 700.102417,87.189095 
	C700.171021,88.479889 701.470398,89.705315 702.204895,90.960739 
	C703.135315,89.679268 704.764832,88.451462 704.868103,87.106483 
	C705.209045,82.665085 704.998413,78.181343 704.999451,72.862823 
z"/>
<path fill="#FCBF49" opacity="1.000000" stroke="none" 
	d="
M380.999786,90.992432 
	C380.999817,83.521294 380.999817,76.548264 380.999817,69.341362 
	C379.219574,69.097046 377.669495,68.884323 376.119415,68.671593 
	C375.976440,68.198372 375.833466,67.725151 375.690491,67.251930 
	C377.257141,66.659431 378.823792,66.066925 380.886444,65.286835 
	C380.783478,55.812149 382.899536,46.176033 393.029480,42.349384 
	C400.387756,39.569775 408.769867,39.264912 415.477966,45.669144 
	C428.584625,40.295483 426.947052,39.614819 426.973053,53.321667 
	C427.005280,70.294113 426.980774,87.266670 426.980774,104.068733 
	C428.561340,104.954361 429.945251,105.729790 431.329163,106.505219 
	C431.182007,106.891655 431.034882,107.278084 430.887756,107.664520 
	C422.350159,107.664520 413.812561,107.664520 405.274963,107.664520 
	C405.081238,107.332840 404.887482,107.001160 404.693756,106.669479 
	C405.972168,105.870926 407.250580,105.072372 408.770325,104.123070 
	C408.770325,89.437820 408.770325,74.347198 408.770325,58.973644 
	C403.234894,60.145397 401.005066,56.684196 400.434814,52.497437 
	C400.199127,50.767063 402.551361,48.684204 404.351501,45.739410 
	C404.421936,45.798695 403.370911,44.913902 402.319885,44.029129 
	C401.226410,45.335720 399.367615,46.538315 399.173462,47.967094 
	C398.384216,53.775646 398.105591,59.653591 397.598572,66.008698 
	C400.343811,66.008698 402.299408,65.910507 404.234406,66.066963 
	C404.835327,66.115555 405.380402,66.854797 405.951050,67.277863 
	C405.362762,67.849503 404.826263,68.832161 404.176239,68.914101 
	C402.375427,69.141106 400.527344,68.992752 398.349060,68.992752 
	C398.349060,80.838486 398.349060,92.569611 398.349060,104.375954 
	C399.902985,104.973816 401.609314,105.630325 403.315674,106.286827 
	C403.167389,106.762909 403.019073,107.238991 402.870789,107.715073 
	C393.975098,107.715073 385.079407,107.715073 376.183685,107.715073 
	C376.014252,107.250900 375.844788,106.786736 375.675354,106.322563 
	C377.214233,105.702766 378.753113,105.082962 380.999756,104.178108 
	C380.999756,100.392632 380.999756,95.941582 380.999786,90.992432 
z"/>
<path fill="#FCBF49" opacity="1.000000" stroke="none" 
	d="
M332.845428,80.208427 
	C330.157104,84.634064 325.820007,84.614685 321.666504,83.756714 
	C315.941040,82.574013 317.042633,77.547234 316.358276,73.357536 
	C310.742035,83.367256 313.994293,94.217758 312.922211,104.372620 
	C315.441956,105.017784 317.361725,105.509346 319.281494,106.000900 
	C319.146637,106.569901 319.011780,107.138901 318.876923,107.707901 
	C300.651550,107.707901 282.426147,107.707901 264.200775,107.707901 
	C264.022675,107.358421 263.844574,107.008934 263.666473,106.659454 
	C264.983551,105.869804 266.300659,105.080154 267.858826,104.145958 
	C267.858826,92.838341 267.858826,81.219536 267.858826,69.708313 
	C266.041931,69.023247 264.366119,68.391373 262.690308,67.759499 
	C262.855316,67.253212 263.020325,66.746918 263.185333,66.240631 
	C270.610291,66.240631 278.035248,66.240631 285.922485,66.240631 
	C285.922485,79.059135 285.922485,91.790092 285.922485,104.756065 
	C289.106079,104.756065 291.831635,104.756065 294.780273,104.756065 
	C294.780273,92.976227 294.780273,81.372726 294.780273,69.742104 
	C293.122650,69.079285 291.402924,68.391624 289.683167,67.703964 
	C298.972931,64.695251 312.139130,65.777359 312.828247,67.287140 
	C318.072815,66.835121 322.936401,65.662422 327.516907,66.356926 
	C329.628784,66.677147 331.646942,70.438835 332.837311,73.038567 
	C333.654755,74.823898 332.973694,77.295372 332.862488,79.870056 
	C332.762482,80.279953 332.845428,80.208427 332.845428,80.208427 
z"/>
<path fill="#FCBF49" opacity="1.000000" stroke="none" 
	d="
M495.999451,63.011726 
	C496.001038,58.536854 496.001038,54.559849 496.001038,50.763950 
	C494.031677,50.025284 492.360229,49.398361 490.688782,48.771442 
	C490.854889,48.260822 491.020966,47.750198 491.187073,47.239578 
	C506.282776,47.239578 521.378479,47.239578 537.309021,47.239578 
	C537.615845,53.077728 537.921570,58.895271 538.227295,64.712814 
	C537.693115,64.992126 537.158936,65.271439 536.624756,65.550751 
	C535.414551,64.019859 533.952820,62.625217 533.037170,60.934776 
	C528.780579,53.076317 523.997620,50.065765 515.177368,50.426407 
	C515.177368,58.532150 515.177368,66.644859 515.177368,74.778038 
	C522.015259,73.985435 524.896851,71.275986 527.741577,63.525139 
	C528.494751,64.875397 529.861450,66.208641 529.899353,67.578728 
	C530.111145,75.215523 530.001099,82.861244 530.001099,91.697594 
	C528.237366,90.695702 526.368652,90.267639 526.132996,89.397324 
	C524.618408,83.804596 522.005981,79.603500 515.285889,79.222641 
	C515.285889,87.270599 515.285889,95.325562 515.285889,103.742172 
	C520.828064,104.628624 526.007446,103.525078 529.879211,99.443871 
	C533.235291,95.906281 535.795532,91.613708 539.668091,88.154762 
	C539.668091,94.537102 539.668091,100.919434 539.668091,107.653481 
	C523.770081,107.653481 507.713531,107.653481 491.635651,107.653481 
	C491.088043,104.189934 491.088043,104.189934 495.997833,103.777802 
	C495.997833,90.391304 495.997833,76.950447 495.999451,63.011726 
z"/>
<path fill="#FCBF49" opacity="1.000000" stroke="none" 
	d="
M555.959595,65.999825 
	C560.066956,66.578804 563.682495,67.207825 567.317261,67.691490 
	C567.989441,67.780937 568.791565,67.382561 569.445984,67.041199 
	C575.570496,63.846561 581.410706,63.705082 587.430054,67.684647 
	C591.310730,70.250229 591.828003,73.973015 591.927185,77.789864 
	C592.156372,86.605644 592.000000,95.431458 592.000000,104.189552 
	C593.883728,104.937401 595.598083,105.618019 597.312439,106.298637 
	C597.168518,106.761612 597.024597,107.224594 596.880676,107.687569 
	C588.323792,107.687569 579.766907,107.687569 571.210083,107.687569 
	C571.032410,107.344025 570.854797,107.000473 570.677185,106.656929 
	C571.993530,105.865532 573.309875,105.074127 575.012817,104.050293 
	C574.569092,93.295815 576.258667,81.995750 572.861816,70.700027 
	C565.877075,75.409943 564.508728,96.381027 570.069946,107.621132 
	C561.372620,107.621132 552.852478,107.621132 544.332275,107.621132 
	C544.127747,107.195892 543.923218,106.770653 543.718689,106.345406 
	C545.328552,105.670135 546.938416,104.994858 548.821472,104.204979 
	C548.821472,92.924416 548.821472,81.302689 548.821472,69.679001 
	C547.088562,69.018333 545.384277,68.368599 543.679993,67.718857 
	C543.828430,67.145828 543.976807,66.572792 544.125244,65.999763 
	C547.908264,65.999763 551.691345,65.999763 555.959595,65.999825 
z"/>
<path fill="#FCBF49" opacity="1.000000" stroke="none" 
	d="
M214.509094,50.770912 
	C213.660416,49.610802 213.217621,48.632240 212.584427,47.232964 
	C228.598419,47.232964 244.014679,47.232964 259.869049,47.232964 
	C260.353394,53.266918 260.834930,59.266537 261.316498,65.266159 
	C260.820129,65.649544 260.323761,66.032936 259.827362,66.416321 
	C258.551025,65.273338 257.025726,64.309097 256.050018,62.950249 
	C254.003464,60.100056 252.882294,56.089672 250.211990,54.306004 
	C246.713333,51.969006 242.085526,51.322380 237.240753,49.715652 
	C237.240753,59.775211 237.240753,68.198479 237.240753,76.619110 
	C243.149582,76.930206 247.429794,73.807983 249.066925,68.407692 
	C249.419632,67.244186 250.752502,66.377831 252.310287,64.604713 
	C253.874359,75.234489 253.243240,90.140762 250.957413,93.551506 
	C247.404221,88.272972 247.483932,78.873634 237.316193,81.357811 
	C237.316193,88.861938 237.316193,96.598915 237.316193,104.406425 
	C240.345566,106.758514 245.403931,102.641182 248.786362,107.729019 
	C236.586594,107.729019 225.360733,107.729019 214.134857,107.729019 
	C213.980743,107.247833 213.826630,106.766647 213.672516,106.285461 
	C215.247162,105.680267 216.821808,105.075066 218.757080,104.331276 
	C218.757080,86.997299 218.757080,69.244690 218.757080,51.120426 
	C217.449600,51.063267 216.182281,51.007862 214.509094,50.770912 
z"/>
<path fill="#FCBF49" opacity="1.000000" stroke="none" 
	d="
M440.730957,89.363358 
	C438.371124,83.474503 436.382294,77.857742 433.986908,72.420090 
	C433.091888,70.388374 431.248749,68.774330 429.370758,66.372330 
	C438.638702,66.372330 447.149078,66.372330 455.659485,66.372330 
	C455.875397,66.681984 456.091309,66.991638 456.307190,67.301285 
	C455.067566,68.123474 453.827911,68.945656 452.105469,70.088043 
	C454.386475,76.910980 456.864563,84.323380 459.772980,93.022995 
	C462.757080,84.476440 465.376648,76.973930 467.894043,69.764030 
	C465.998169,69.015404 464.343628,68.362068 462.689056,67.708733 
	C462.877441,67.205971 463.065796,66.703217 463.254181,66.200462 
	C467.700226,66.200462 472.146301,66.200462 476.996246,66.200462 
	C476.736603,67.231735 476.516998,68.788544 476.320129,68.785675 
	C471.761414,68.719269 471.709259,71.774368 470.696289,75.228706 
	C467.895599,84.779358 464.272491,94.093559 460.846680,103.454460 
	C458.692352,109.341125 456.223969,115.112488 454.046570,120.991150 
	C450.887512,129.520142 440.050354,133.385834 431.591614,126.813477 
	C428.288940,124.247299 429.098175,119.595421 430.292725,116.110825 
	C430.813843,114.590721 433.991669,113.368813 436.097565,113.111053 
	C445.013580,112.019730 445.066040,115.244270 444.868988,120.339546 
	C444.815735,121.716660 443.164124,123.031960 442.297699,124.300171 
	C447.209991,125.000076 453.482086,116.618126 453.871979,108.187859 
	C447.730316,109.037109 445.814636,105.438667 444.834625,100.098663 
	C444.177307,96.517052 442.281891,93.162666 440.730957,89.363358 
z"/>
<path fill="#FCBF49" opacity="1.000000" stroke="none" 
	d="
M332.727234,80.321838 
	C335.518463,74.923065 338.128998,69.431671 344.585236,67.077568 
	C351.599304,64.520065 358.505768,63.953392 365.463165,66.895645 
	C372.844177,70.017044 375.285797,74.927048 374.857819,85.810638 
	C367.140503,85.810638 359.384857,85.810638 351.727631,85.810638 
	C349.871338,94.747414 352.655090,103.195778 357.615967,103.965012 
	C364.434479,105.022263 369.309479,102.442741 371.444427,93.990440 
	C372.592957,94.452835 373.696838,94.897255 374.802856,95.342537 
	C372.981873,107.220131 362.298706,109.988998 352.138000,109.141823 
	C346.154053,108.642891 340.843750,106.895767 337.150879,102.239189 
	C332.208893,96.007553 330.880127,88.753471 332.916870,80.595474 
	C332.845428,80.208427 332.762482,80.279953 332.727234,80.321838 
M351.003357,75.950119 
	C351.003357,78.202560 351.003357,80.455009 351.003357,82.727905 
	C353.593506,82.727905 355.644165,82.727905 358.041229,82.727905 
	C357.662811,77.471741 359.323822,72.091347 354.059753,67.772964 
	C352.963470,70.418465 351.995850,72.753548 351.003357,75.950119 
z"/>
<path fill="#FCBF49" opacity="1.000000" stroke="none" 
	d="
M630.938354,86.000275 
	C625.484253,86.000328 620.519287,86.000328 615.002197,86.000328 
	C615.002197,88.724945 614.877441,91.168648 615.027527,93.595337 
	C615.366882,99.080460 618.365540,103.242531 622.340271,103.981552 
	C627.429382,104.927757 631.785645,102.358574 634.430115,97.145424 
	C635.140991,95.743866 636.495117,94.668579 638.214539,93.996735 
	C637.916748,101.046135 635.037659,106.071228 628.124084,107.983009 
	C620.203979,110.173157 608.449890,109.782555 602.121887,102.999985 
	C597.366394,97.902924 595.141296,85.142319 597.815125,78.534691 
	C601.473145,69.494637 608.210693,65.249863 617.796753,64.976097 
	C623.263733,64.819977 628.571045,65.223190 633.115967,68.637741 
	C638.812866,72.917763 638.881836,79.174034 639.002136,86.000214 
	C636.319092,86.000214 633.873230,86.000214 630.938354,86.000275 
M616.806763,69.754494 
	C616.013123,73.730400 615.219543,77.706306 614.438965,81.616623 
	C617.778870,81.616623 619.847412,81.616623 622.466614,81.616623 
	C621.927795,77.806465 621.681458,74.376534 620.824524,71.106667 
	C620.589417,70.209686 618.526001,69.791855 616.806763,69.754494 
z"/>
<path fill="#FDC049" opacity="1.000000" stroke="none" 
	d="
M158.999741,91.000000 
	C158.999771,64.351860 159.005249,38.203712 158.990677,12.055577 
	C158.989349,9.676496 158.548172,7.018954 162.744690,8.318926 
	C162.823242,9.468494 162.988174,10.758691 162.988525,12.048933 
	C163.001694,60.847694 163.007538,109.646461 162.974243,158.445206 
	C162.972748,160.651428 164.111221,164.056259 158.999741,162.617477 
	C158.999741,139.037827 158.999741,115.268913 158.999741,91.000000 
z"/>
<path fill="#FCBF49" opacity="1.000000" stroke="none" 
	d="
M286.032776,50.878250 
	C288.016968,57.725338 283.123993,62.620850 275.347839,61.998390 
	C270.528656,61.612629 266.580658,57.665371 267.076385,53.135132 
	C267.594635,48.399364 269.778381,44.141151 275.795990,44.908226 
	C280.080597,45.454399 285.137177,43.910988 286.032776,50.878250 
z"/>
<path fill="#000000" opacity="0" stroke="none" 
	d="
M748.031982,114.184517 
	C745.663818,122.418175 741.800903,125.816147 736.915771,123.494095 
	C738.493103,123.159172 739.586975,122.926910 742.000916,122.414352 
	C740.815369,119.235931 740.502258,115.333107 738.389709,113.463593 
	C735.356628,110.779366 731.064880,111.168037 727.674133,113.452217 
	C724.149414,93.043213 707.832520,97.873016 694.366455,96.003479 
	C695.700623,95.669258 697.018005,95.170616 698.372192,95.031670 
	C702.431641,94.615143 706.512878,94.410767 710.571899,93.990547 
	C715.884155,93.440598 719.528687,89.860764 720.604309,85.348045 
	C721.814087,80.272156 722.148071,74.604393 717.685791,70.065727 
	C715.992065,68.343048 715.127808,65.804977 714.257263,64.286880 
	C717.107117,65.274582 719.545654,66.624886 722.097412,66.891479 
	C726.450623,67.346252 729.234192,69.220078 730.751282,73.347229 
	C734.962219,84.803276 739.293457,96.215118 743.677979,107.913353 
	C745.734497,107.913353 748.040588,107.913353 750.879456,107.913353 
	C749.819092,110.122398 748.938721,111.956589 748.031982,114.184517 
z"/>
<path fill="#000000" opacity="0" stroke="none" 
	d="
M708.638916,124.990768 
	C704.149902,124.840591 699.772461,125.542969 696.068115,124.276581 
	C690.964417,122.531807 693.861633,117.035378 692.705078,112.624580 
	C698.640259,113.051933 704.632507,113.322685 710.574707,114.020203 
	C712.129822,114.202744 714.721252,115.670860 714.753235,116.618965 
	C714.820862,118.618515 713.786133,120.836830 712.664795,122.627991 
	C711.975098,123.729591 710.289185,124.207520 708.638916,124.990768 
z"/>
<path fill="#000000" opacity="0" stroke="none" 
	d="
M704.999512,73.288345 
	C704.998413,78.181343 705.209045,82.665085 704.868103,87.106483 
	C704.764832,88.451462 703.135315,89.679268 702.204895,90.960739 
	C701.470398,89.705315 700.171021,88.479889 700.102417,87.189095 
	C699.848633,82.409378 699.867188,77.602272 700.075623,72.818192 
	C700.145386,71.217110 701.089478,69.654137 701.633911,68.073746 
	C702.118896,68.046753 702.603821,68.019753 703.088806,67.992752 
	C703.725647,69.616112 704.362549,71.239464 704.999512,73.288345 
z"/>
<path fill="#000000" opacity="0" stroke="none" 
	d="
M351.015778,75.519379 
	C351.995850,72.753548 352.963470,70.418465 354.059753,67.772964 
	C359.323822,72.091347 357.662811,77.471741 358.041229,82.727905 
	C355.644165,82.727905 353.593506,82.727905 351.003357,82.727905 
	C351.003357,80.455009 351.003357,78.202560 351.015778,75.519379 
z"/>
<path fill="#000000" opacity="0" stroke="none" 
	d="
M617.054199,69.454323 
	C618.526001,69.791855 620.589417,70.209686 620.824524,71.106667 
	C621.681458,74.376534 621.927795,77.806465 622.466614,81.616623 
	C619.847412,81.616623 617.778870,81.616623 614.438965,81.616623 
	C615.219543,77.706306 616.013123,73.730400 617.054199,69.454323 
z"/>
</svg>